# Blender 3.4.1
# www.blender.org
o Cube.003
v -2.007318 0.224220 0.721071
v -2.172065 0.232517 0.466894
v -2.142228 0.231714 0.628145
v -2.157407 0.477913 0.465404
v -1.992658 0.469615 0.719581
v -2.127569 0.477109 0.626654
v -1.964581 0.214184 -0.511061
v -1.710912 0.198029 -0.676008
v -1.871867 0.207825 -0.646176
v -1.696253 0.443425 -0.677498
v -1.949922 0.459580 -0.512551
v -1.857208 0.453221 -0.647666
v -0.777339 0.151008 0.764329
v -1.031009 0.167163 0.929276
v -0.870053 0.157367 0.899444
v -1.016350 0.412558 0.927785
v -0.762680 0.396403 0.762839
v -0.855394 0.402762 0.897954
v -0.734603 0.140973 -0.467804
v -0.569855 0.132675 -0.213627
v -0.599692 0.133478 -0.374877
v -0.555196 0.378070 -0.215117
v -0.719944 0.386368 -0.469294
v -0.585033 0.378873 -0.376367
v -1.222757 0.169501 -0.571906
v -1.208098 0.414896 -0.573396
v -2.057239 0.619428 0.582070
v -2.084728 0.620168 0.433510
v -1.932945 0.612523 0.667684
v -1.893572 0.603278 -0.467484
v -1.808154 0.597419 -0.591966
v -1.659865 0.588394 -0.619449
v -0.799762 0.545073 0.707537
v -0.885180 0.550932 0.832019
v -1.033469 0.559957 0.859503
v -0.636095 0.528923 -0.342017
v -0.608606 0.528183 -0.193456
v -0.760389 0.535828 -0.427630
v -1.210127 0.562111 -0.523540
v -2.678613 -0.211525 1.000000
v -2.678613 -0.211525 -1.000000
v -2.276821 0.211525 1.000000
v -2.276821 0.211525 -0.700000
v -2.678613 0.998113 -0.700000
v -2.276821 0.998113 -0.700000
v -2.678613 1.614541 -0.700000
v -2.678613 1.614541 -1.000000
v -2.276821 0.998113 0.868542
v -2.276821 0.970307 1.000000
v -2.276821 0.989969 0.961497
v -2.678613 0.970307 1.000000
v -2.678613 0.998113 0.868542
v -2.678613 0.989969 0.961497
v 2.678612 -0.211525 1.000000
v 2.678613 -0.211525 -1.000000
v 2.276820 0.211525 1.000000
v 2.276821 0.211525 -0.700000
v 2.678612 0.998113 -0.700000
v 2.276821 0.998113 -0.700000
v 2.678613 1.614541 -0.700000
v 2.678612 1.614541 -1.000000
v 2.276820 0.998113 0.868542
v 2.276821 0.970307 1.000000
v 2.276821 0.989969 0.961497
v 2.678612 0.970306 1.000000
v 2.678612 0.998113 0.868542
v 2.678612 0.989969 0.961497
v -0.514108 0.224220 0.721072
v -0.678856 0.232517 0.466894
v -0.649018 0.231714 0.628145
v -0.664197 0.477913 0.465404
v -0.499449 0.469615 0.719581
v -0.634359 0.477109 0.626654
v -0.471372 0.214184 -0.511061
v -0.217702 0.198029 -0.676008
v -0.378657 0.207825 -0.646176
v -0.203043 0.443425 -0.677498
v -0.456713 0.459579 -0.512551
v -0.363998 0.453221 -0.647666
v 0.715871 0.151008 0.764329
v 0.462201 0.167163 0.929276
v 0.623156 0.157367 0.899444
v 0.476860 0.412558 0.927785
v 0.730530 0.396403 0.762839
v 0.637815 0.402762 0.897954
v 0.758607 0.140973 -0.467804
v 0.923355 0.132675 -0.213627
v 0.893517 0.133478 -0.374877
v 0.938014 0.378070 -0.215117
v 0.773266 0.386368 -0.469294
v 0.908176 0.378873 -0.376367
v 0.270452 0.169501 -0.571906
v 0.285112 0.414896 -0.573396
v -0.564029 0.619428 0.582070
v -0.591518 0.620168 0.433510
v -0.439735 0.612523 0.667684
v -0.400362 0.603278 -0.467484
v -0.314944 0.597419 -0.591966
v -0.166655 0.588394 -0.619449
v 0.693448 0.545073 0.707537
v 0.608030 0.550932 0.832019
v 0.459741 0.559957 0.859503
v 0.857115 0.528923 -0.342016
v 0.884604 0.528183 -0.193456
v 0.732821 0.535828 -0.427630
v 0.283083 0.562111 -0.523540
v 0.903497 0.224220 0.721072
v 0.738749 0.232517 0.466894
v 0.768586 0.231714 0.628145
v 0.753407 0.477913 0.465404
v 0.918156 0.469615 0.719581
v 0.783245 0.477109 0.626654
v 0.946233 0.214184 -0.511061
v 1.199903 0.198029 -0.676008
v 1.038947 0.207825 -0.646176
v 1.214562 0.443425 -0.677498
v 0.960892 0.459579 -0.512551
v 1.053606 0.453221 -0.647666
v 2.133475 0.151008 0.764329
v 1.879805 0.167163 0.929276
v 2.040761 0.157367 0.899444
v 1.894464 0.412558 0.927785
v 2.148134 0.396403 0.762839
v 2.055420 0.402762 0.897954
v 2.176211 0.140973 -0.467804
v 2.340959 0.132675 -0.213626
v 2.311122 0.133478 -0.374877
v 2.355618 0.378070 -0.215117
v 2.190870 0.386368 -0.469294
v 2.325781 0.378873 -0.376367
v 1.688057 0.169501 -0.571906
v 1.702715 0.414896 -0.573396
v 0.853575 0.619428 0.582070
v 0.826087 0.620168 0.433510
v 0.977869 0.612523 0.667684
v 1.017242 0.603278 -0.467484
v 1.102660 0.597419 -0.591965
v 1.250949 0.588394 -0.619449
v 2.111052 0.545073 0.707537
v 2.025634 0.550932 0.832019
v 1.877345 0.559957 0.859503
v 2.274719 0.528923 -0.342016
v 2.302208 0.528183 -0.193456
v 2.150425 0.535828 -0.427630
v 1.700687 0.562111 -0.523540
vn -0.9764 0.0571 -0.2082
vn -0.0596 -0.9982 0.0061
vn -0.2075 0.0183 0.9781
vn -0.9815 0.0597 0.1819
vn -0.5654 0.0388 0.8239
vn -0.8227 0.0457 -0.5667
vn -0.1819 0.0049 -0.9833
vn 0.2075 -0.0183 -0.9781
vn 0.8227 -0.0457 0.5667
vn 0.1819 -0.0049 0.9833
vn -0.4828 0.4701 0.7389
vn 0.9815 -0.0597 -0.1819
vn 0.5654 -0.0388 -0.8239
vn 0.9764 -0.0571 0.2082
vn 0.0596 0.9982 -0.0061
vn -0.1436 0.3987 -0.9058
vn 0.2155 0.3159 -0.9240
vn 0.1897 0.4308 0.8823
vn 0.5430 0.3586 -0.7593
vn -0.8635 0.4775 0.1622
vn -0.8903 0.4108 -0.1966
vn -0.7271 0.4482 -0.5200
vn -0.1690 0.3981 0.9017
vn 0.9207 0.3519 -0.1686
vn 0.7703 0.3820 0.5106
vn 0.9330 0.3042 0.1922
vn -0.0000 -0.0000 1.0000
vn -1.0000 -0.0000 -0.0000
vn -0.0000 1.0000 -0.0000
vn -0.0000 0.9962 0.0873
vn -0.0000 0.8906 0.4548
vn 1.0000 -0.0000 -0.0000
vn -0.0000 -0.0000 -1.0000
vn 0.7703 0.3821 0.5106
vt 0.587500 0.000000
vt 0.587500 1.000000
vt 0.625000 0.037500
vt 0.875000 0.712500
vt 0.614017 0.010983
vt 0.875000 0.750000
vt 0.625000 1.000000
vt 0.738706 0.712500
vt 0.587500 0.863706
vt 0.703208 0.785498
vt 0.875000 0.537500
vt 0.625000 0.212500
vt 0.587500 0.250000
vt 0.625000 0.250000
vt 0.614017 0.239017
vt 0.875000 0.500000
vt 0.587500 0.386294
vt 0.738706 0.537500
vt 0.657749 0.419043
vt 0.375000 0.037500
vt 0.125000 0.712500
vt 0.412500 1.000000
vt 0.412500 0.000000
vt 0.125000 0.750000
vt 0.385983 0.010983
vt 0.375000 1.000000
vt 0.412500 0.863706
vt 0.261294 0.712500
vt 0.299806 0.788511
vt 0.412500 0.250000
vt 0.375000 0.212500
vt 0.125000 0.537500
vt 0.385983 0.239017
vt 0.125000 0.500000
vt 0.375000 0.250000
vt 0.261294 0.537500
vt 0.412500 0.386294
vt 0.344403 0.416892
vt 0.500000 0.250000
vt 0.500000 0.386294
vt 0.659613 0.963834
vt 0.703208 0.785498
vt 0.738706 0.712500
vt 0.587500 0.863706
vt 0.738706 0.537500
vt 0.738102 0.552249
vt 0.657749 0.419043
vt 0.587500 0.386294
vt 0.261294 0.712500
vt 0.326796 0.958012
vt 0.299806 0.788511
vt 0.412500 0.863706
vt 0.245710 0.554001
vt 0.344403 0.416892
vt 0.261294 0.537500
vt 0.412500 0.386294
vt 0.500000 0.386294
vt 0.625000 1.000000
vt 0.375000 0.875000
vt 0.625000 0.000000
vt 0.625000 0.250000
vt 0.625000 0.375000
vt 0.625000 0.212500
vt 0.625000 0.981250
vt 0.856250 0.750000
vt 0.625000 0.875000
vt 0.750000 0.750000
vt 0.856250 0.537500
vt 0.750000 0.537500
vt 0.875000 0.537500
vt 0.625000 0.212500
vt 0.856250 0.537500
vt 0.625000 0.212500
vt 0.750000 0.537500
vt 0.625000 0.250000
vt 0.750000 0.500000
vt 0.625000 0.375000
vt 0.856250 0.733568
vt 0.625000 0.981250
vt 0.856250 0.750000
vt 0.625000 0.981250
vt 0.856250 0.750000
vt 0.856250 0.745187
vt 0.625000 0.000000
vt 0.625000 1.000000
vt 0.625000 0.016432
vt 0.875000 0.733568
vt 0.625000 0.004813
vt 0.875000 0.750000
vt 0.625000 1.000000
vt 0.625000 1.000000
vt 0.375000 0.981250
vt 0.625000 0.000000
vt 0.625000 0.250000
vt 0.625000 0.212500
vt 0.625000 0.268750
vt 0.625000 0.981250
vt 0.856250 0.750000
vt 0.856250 0.537500
vt 0.875000 0.537500
vt 0.625000 0.212500
vt 0.856250 0.537500
vt 0.875000 0.537500
vt 0.856250 0.537500
vt 0.625000 0.212500
vt 0.856250 0.500000
vt 0.625000 0.268750
vt 0.625000 0.250000
vt 0.856250 0.733568
vt 0.625000 0.981250
vt 0.856250 0.750000
vt 0.856250 0.750000
vt 0.625000 0.981250
vt 0.856250 0.745187
vt 0.625000 0.000000
vt 0.625000 1.000000
vt 0.625000 0.016432
vt 0.875000 0.733568
vt 0.625000 1.000000
vt 0.625000 0.004813
vt 0.875000 0.750000
vt 0.587500 0.000000
vt 0.587500 1.000000
vt 0.625000 0.037500
vt 0.875000 0.712500
vt 0.614017 0.010983
vt 0.875000 0.750000
vt 0.625000 1.000000
vt 0.738706 0.712500
vt 0.587500 0.863706
vt 0.703208 0.785498
vt 0.875000 0.537500
vt 0.625000 0.212500
vt 0.587500 0.250000
vt 0.625000 0.250000
vt 0.614017 0.239017
vt 0.875000 0.500000
vt 0.587500 0.386294
vt 0.738706 0.537500
vt 0.657749 0.419043
vt 0.375000 0.037500
vt 0.125000 0.712500
vt 0.412500 1.000000
vt 0.412500 0.000000
vt 0.125000 0.750000
vt 0.385983 0.010983
vt 0.375000 1.000000
vt 0.412500 0.863706
vt 0.261294 0.712500
vt 0.299806 0.788511
vt 0.412500 0.250000
vt 0.375000 0.212500
vt 0.125000 0.537500
vt 0.385983 0.239017
vt 0.125000 0.500000
vt 0.375000 0.250000
vt 0.261294 0.537500
vt 0.412500 0.386294
vt 0.344403 0.416892
vt 0.500000 0.250000
vt 0.500000 0.386294
vt 0.659613 0.963834
vt 0.703208 0.785498
vt 0.738706 0.712500
vt 0.587500 0.863706
vt 0.738706 0.537500
vt 0.738102 0.552249
vt 0.657749 0.419043
vt 0.587500 0.386294
vt 0.261294 0.712500
vt 0.326796 0.958012
vt 0.299806 0.788511
vt 0.412500 0.863706
vt 0.245710 0.554001
vt 0.344403 0.416892
vt 0.261294 0.537500
vt 0.412500 0.386294
vt 0.500000 0.386294
vt 0.587500 0.000000
vt 0.587500 1.000000
vt 0.625000 0.037500
vt 0.875000 0.712500
vt 0.614017 0.010983
vt 0.875000 0.750000
vt 0.625000 1.000000
vt 0.738706 0.712500
vt 0.587500 0.863706
vt 0.703208 0.785498
vt 0.875000 0.537500
vt 0.625000 0.212500
vt 0.587500 0.250000
vt 0.625000 0.250000
vt 0.614017 0.239017
vt 0.875000 0.500000
vt 0.587500 0.386294
vt 0.738706 0.537500
vt 0.657749 0.419043
vt 0.375000 0.037500
vt 0.125000 0.712500
vt 0.412500 1.000000
vt 0.412500 0.000000
vt 0.125000 0.750000
vt 0.385983 0.010983
vt 0.375000 1.000000
vt 0.412500 0.863706
vt 0.261294 0.712500
vt 0.299806 0.788511
vt 0.412500 0.250000
vt 0.375000 0.212500
vt 0.125000 0.537500
vt 0.385983 0.239017
vt 0.125000 0.500000
vt 0.375000 0.250000
vt 0.261294 0.537500
vt 0.412500 0.386294
vt 0.344403 0.416892
vt 0.500000 0.250000
vt 0.500000 0.386294
vt 0.659613 0.963834
vt 0.703208 0.785498
vt 0.738706 0.712500
vt 0.587500 0.863706
vt 0.738706 0.537500
vt 0.738102 0.552249
vt 0.657749 0.419043
vt 0.587500 0.386294
vt 0.261294 0.712500
vt 0.326796 0.958012
vt 0.299806 0.788511
vt 0.412500 0.863706
vt 0.245710 0.554001
vt 0.344403 0.416892
vt 0.261294 0.537500
vt 0.412500 0.386294
vt 0.500000 0.386294
s 0
f 7/11/1 4/8/1 11/18/1
f 15/25/2 2/3/2 25/39/2
f 16/27/3 1/2/3 14/22/3
f 2/4/4 6/10/4 4/8/4
f 3/7/5 5/9/5 6/10/5
f 11/18/6 9/16/6 7/11/6
f 12/19/7 8/13/7 9/14/7
f 8/13/8 26/40/8 25/39/8
f 13/21/9 18/29/9 15/24/9
f 15/26/10 16/27/10 14/22/10
f 6/10/11 29/44/11 27/42/11
f 22/36/12 21/34/12 24/38/12
f 24/38/13 19/30/13 23/37/13
f 20/32/14 17/28/14 13/21/14
f 25/39/8 23/37/8 19/30/8
f 36/53/15 31/46/15 29/44/15
f 10/17/16 31/47/16 32/48/16
f 26/40/17 38/56/17 23/37/17
f 18/29/18 35/52/18 16/27/18
f 23/37/19 36/54/19 24/38/19
f 4/8/20 27/42/20 28/43/20
f 10/17/17 39/57/17 26/40/17
f 11/18/21 28/43/21 30/45/21
f 12/19/22 30/45/22 31/47/22
f 5/9/23 35/52/23 29/44/23
f 24/38/24 37/55/24 22/36/24
f 17/28/25 34/51/25 18/29/25
f 22/36/26 33/49/26 17/28/26
f 45/72/27 46/73/27 44/70/27
f 42/64/27 51/85/27 40/58/27
f 40/60/28 53/88/28 44/71/28
f 44/70/29 48/78/29 45/72/29
f 44/71/28 47/75/28 41/61/28
f 43/69/27 59/102/27 45/72/27
f 52/87/30 50/82/30 48/78/30
f 53/90/31 49/79/31 50/81/31
f 43/68/32 48/78/32 49/80/32
f 54/92/27 42/66/27 40/59/27
f 57/99/27 59/102/27 43/69/27
f 43/69/29 56/98/29 57/99/29
f 59/102/27 46/74/27 45/72/27
f 65/116/27 56/97/27 54/91/27
f 58/101/32 67/120/32 54/93/32
f 59/102/29 66/118/29 58/100/29
f 47/76/29 60/104/29 61/106/29
f 47/77/33 55/96/33 41/62/33
f 61/108/32 58/101/32 55/94/32
f 58/100/27 60/103/27 59/102/27
f 62/109/30 67/121/30 66/118/30
f 64/113/31 65/116/31 67/119/31
f 63/111/28 62/109/28 57/99/28
f 74/132/1 71/129/1 78/139/1
f 82/146/2 69/124/2 92/160/2
f 83/148/3 68/123/3 81/143/3
f 69/125/4 73/131/4 71/129/4
f 70/128/5 72/130/5 73/131/5
f 78/139/6 76/137/6 74/132/6
f 79/140/7 75/134/7 76/135/7
f 75/134/8 93/161/8 92/160/8
f 80/142/9 85/150/9 82/145/9
f 82/147/10 83/148/10 81/143/10
f 73/131/11 96/165/11 94/163/11
f 89/157/12 88/155/12 91/159/12
f 91/159/13 86/151/13 90/158/13
f 87/153/14 84/149/14 80/142/14
f 92/160/8 90/158/8 86/151/8
f 103/174/15 98/167/15 96/165/15
f 77/138/16 98/168/16 99/169/16
f 93/161/17 105/177/17 90/158/17
f 85/150/18 102/173/18 83/148/18
f 90/158/19 103/175/19 91/159/19
f 71/129/20 94/163/20 95/164/20
f 77/138/17 106/178/17 93/161/17
f 78/139/21 95/164/21 97/166/21
f 79/140/22 97/166/22 98/168/22
f 72/130/23 102/173/23 96/165/23
f 91/159/24 104/176/24 89/157/24
f 84/149/34 101/172/34 85/150/34
f 89/157/26 100/170/26 84/149/26
f 113/189/1 110/186/1 117/196/1
f 121/203/2 108/181/2 131/217/2
f 122/205/3 107/180/3 120/200/3
f 108/182/4 112/188/4 110/186/4
f 109/185/5 111/187/5 112/188/5
f 117/196/6 115/194/6 113/189/6
f 118/197/7 114/191/7 115/192/7
f 114/191/8 132/218/8 131/217/8
f 119/199/9 124/207/9 121/202/9
f 121/204/10 122/205/10 120/200/10
f 112/188/11 135/222/11 133/220/11
f 128/214/12 127/212/12 130/216/12
f 130/216/13 125/208/13 129/215/13
f 126/210/14 123/206/14 119/199/14
f 131/217/8 129/215/8 125/208/8
f 142/231/15 137/224/15 135/222/15
f 116/195/16 137/225/16 138/226/16
f 132/218/17 144/234/17 129/215/17
f 124/207/18 141/230/18 122/205/18
f 129/215/19 142/232/19 130/216/19
f 110/186/20 133/220/20 134/221/20
f 116/195/17 145/235/17 132/218/17
f 117/196/21 134/221/21 136/223/21
f 118/197/22 136/223/22 137/225/22
f 111/187/23 141/230/23 135/222/23
f 130/216/24 143/233/24 128/214/24
f 123/206/34 140/229/34 124/207/34
f 128/214/26 139/227/26 123/206/26
f 7/11/1 2/4/1 4/8/1
f 20/31/2 13/20/2 15/25/2
f 15/25/2 14/23/2 1/1/2
f 1/1/2 3/5/2 2/3/2
f 2/3/2 7/12/2 9/15/2
f 9/15/2 8/13/2 25/39/2
f 25/39/2 19/30/2 21/33/2
f 21/33/2 20/31/2 15/25/2
f 15/25/2 1/1/2 2/3/2
f 2/3/2 9/15/2 25/39/2
f 25/39/2 21/33/2 15/25/2
f 16/27/3 5/9/3 1/2/3
f 2/4/4 3/6/4 6/10/4
f 3/7/5 1/2/5 5/9/5
f 11/18/6 12/19/6 9/16/6
f 12/19/7 10/17/7 8/13/7
f 8/13/8 10/17/8 26/40/8
f 13/21/9 17/28/9 18/29/9
f 15/26/10 18/29/10 16/27/10
f 6/10/11 5/9/11 29/44/11
f 22/36/12 20/32/12 21/34/12
f 24/38/13 21/35/13 19/30/13
f 20/32/14 22/36/14 17/28/14
f 25/39/8 26/40/8 23/37/8
f 33/49/15 37/55/15 36/53/15
f 36/53/15 38/56/15 39/57/15
f 39/57/15 32/48/15 31/46/15
f 31/46/15 30/45/15 28/43/15
f 28/43/15 27/41/15 29/44/15
f 29/44/15 35/52/15 34/50/15
f 34/50/15 33/49/15 36/53/15
f 36/53/15 39/57/15 31/46/15
f 31/46/15 28/43/15 29/44/15
f 29/44/15 34/50/15 36/53/15
f 10/17/16 12/19/16 31/47/16
f 26/40/17 39/57/17 38/56/17
f 18/29/18 34/51/18 35/52/18
f 23/37/19 38/56/19 36/54/19
f 4/8/20 6/10/20 27/42/20
f 10/17/17 32/48/17 39/57/17
f 11/18/21 4/8/21 28/43/21
f 12/19/22 11/18/22 30/45/22
f 5/9/23 16/27/23 35/52/23
f 24/38/24 36/54/24 37/55/24
f 17/28/34 33/49/34 34/51/34
f 22/36/26 37/55/26 33/49/26
f 42/64/27 49/79/27 51/85/27
f 44/71/28 41/63/28 40/60/28
f 40/60/28 51/84/28 53/88/28
f 53/88/28 52/86/28 44/71/28
f 44/70/29 52/87/29 48/78/29
f 44/71/28 46/73/28 47/75/28
f 52/87/30 53/89/30 50/82/30
f 53/90/31 51/85/31 49/79/31
f 49/80/32 42/65/32 43/68/32
f 43/68/32 45/72/32 48/78/32
f 48/78/32 50/83/32 49/80/32
f 54/92/27 56/97/27 42/66/27
f 43/69/29 42/67/29 56/98/29
f 59/102/27 60/103/27 46/74/27
f 65/116/27 63/110/27 56/97/27
f 54/93/32 55/95/32 58/101/32
f 58/101/32 66/117/32 67/120/32
f 67/120/32 65/115/32 54/93/32
f 59/102/29 62/109/29 66/118/29
f 47/76/29 46/74/29 60/104/29
f 47/77/33 61/107/33 55/96/33
f 61/108/32 60/105/32 58/101/32
f 62/109/30 64/112/30 67/121/30
f 64/113/31 63/110/31 65/116/31
f 57/99/28 56/98/28 63/111/28
f 63/111/28 64/114/28 62/109/28
f 62/109/28 59/102/28 57/99/28
f 74/132/1 69/125/1 71/129/1
f 87/152/2 80/141/2 82/146/2
f 82/146/2 81/144/2 68/122/2
f 68/122/2 70/126/2 69/124/2
f 69/124/2 74/133/2 76/136/2
f 76/136/2 75/134/2 92/160/2
f 92/160/2 86/151/2 88/154/2
f 88/154/2 87/152/2 82/146/2
f 82/146/2 68/122/2 69/124/2
f 69/124/2 76/136/2 92/160/2
f 92/160/2 88/154/2 82/146/2
f 83/148/3 72/130/3 68/123/3
f 69/125/4 70/127/4 73/131/4
f 70/128/5 68/123/5 72/130/5
f 78/139/6 79/140/6 76/137/6
f 79/140/7 77/138/7 75/134/7
f 75/134/8 77/138/8 93/161/8
f 80/142/9 84/149/9 85/150/9
f 82/147/10 85/150/10 83/148/10
f 73/131/11 72/130/11 96/165/11
f 89/157/12 87/153/12 88/155/12
f 91/159/13 88/156/13 86/151/13
f 87/153/14 89/157/14 84/149/14
f 92/160/8 93/161/8 90/158/8
f 100/170/15 104/176/15 103/174/15
f 103/174/15 105/177/15 106/178/15
f 106/178/15 99/169/15 98/167/15
f 98/167/15 97/166/15 95/164/15
f 95/164/15 94/162/15 96/165/15
f 96/165/15 102/173/15 101/171/15
f 101/171/15 100/170/15 103/174/15
f 103/174/15 106/178/15 98/167/15
f 98/167/15 95/164/15 96/165/15
f 96/165/15 101/171/15 103/174/15
f 77/138/16 79/140/16 98/168/16
f 93/161/17 106/178/17 105/177/17
f 85/150/18 101/172/18 102/173/18
f 90/158/19 105/177/19 103/175/19
f 71/129/20 73/131/20 94/163/20
f 77/138/17 99/169/17 106/178/17
f 78/139/21 71/129/21 95/164/21
f 79/140/22 78/139/22 97/166/22
f 72/130/23 83/148/23 102/173/23
f 91/159/24 103/175/24 104/176/24
f 84/149/25 100/170/25 101/172/25
f 89/157/26 104/176/26 100/170/26
f 113/189/1 108/182/1 110/186/1
f 126/209/2 119/198/2 121/203/2
f 121/203/2 120/201/2 107/179/2
f 107/179/2 109/183/2 108/181/2
f 108/181/2 113/190/2 115/193/2
f 115/193/2 114/191/2 131/217/2
f 131/217/2 125/208/2 127/211/2
f 127/211/2 126/209/2 121/203/2
f 121/203/2 107/179/2 108/181/2
f 108/181/2 115/193/2 131/217/2
f 131/217/2 127/211/2 121/203/2
f 122/205/3 111/187/3 107/180/3
f 108/182/4 109/184/4 112/188/4
f 109/185/5 107/180/5 111/187/5
f 117/196/6 118/197/6 115/194/6
f 118/197/7 116/195/7 114/191/7
f 114/191/8 116/195/8 132/218/8
f 119/199/9 123/206/9 124/207/9
f 121/204/10 124/207/10 122/205/10
f 112/188/11 111/187/11 135/222/11
f 128/214/12 126/210/12 127/212/12
f 130/216/13 127/213/13 125/208/13
f 126/210/14 128/214/14 123/206/14
f 131/217/8 132/218/8 129/215/8
f 139/227/15 143/233/15 142/231/15
f 142/231/15 144/234/15 145/235/15
f 145/235/15 138/226/15 137/224/15
f 137/224/15 136/223/15 134/221/15
f 134/221/15 133/219/15 135/222/15
f 135/222/15 141/230/15 140/228/15
f 140/228/15 139/227/15 142/231/15
f 142/231/15 145/235/15 137/224/15
f 137/224/15 134/221/15 135/222/15
f 135/222/15 140/228/15 142/231/15
f 116/195/16 118/197/16 137/225/16
f 132/218/17 145/235/17 144/234/17
f 124/207/18 140/229/18 141/230/18
f 129/215/19 144/234/19 142/232/19
f 110/186/20 112/188/20 133/220/20
f 116/195/17 138/226/17 145/235/17
f 117/196/21 110/186/21 134/221/21
f 118/197/22 117/196/22 136/223/22
f 111/187/23 122/205/23 141/230/23
f 130/216/24 142/232/24 143/233/24
f 123/206/25 139/227/25 140/229/25
f 128/214/26 143/233/26 139/227/26
