# Blender 3.4.1
# www.blender.org
o Circle
v 0.519788 -0.162791 -1.585924
v 0.382203 -0.162791 -1.506489
v 0.382203 -0.162791 -1.347620
v 0.519788 -0.162791 -1.268185
v 0.657373 -0.162791 -1.347620
v 0.657373 -0.162791 -1.506489
v 0.519788 -0.265337 -1.585924
v 0.382203 -0.265337 -1.506489
v 0.382203 -0.265337 -1.347620
v 0.519788 -0.265337 -1.268185
v 0.657373 -0.265337 -1.347620
v 0.657373 -0.265337 -1.506489
v 0.519788 -0.440046 -1.525494
v 0.434537 -0.440046 -1.476275
v 0.434537 -0.440046 -1.377835
v 0.519788 -0.440046 -1.328615
v 0.605040 -0.440046 -1.377835
v 0.605040 -0.440046 -1.476275
v -0.519788 -0.162791 -1.585924
v -0.382203 -0.162791 -1.506489
v -0.382203 -0.162791 -1.347620
v -0.519788 -0.162791 -1.268185
v -0.657373 -0.162791 -1.347620
v -0.657373 -0.162791 -1.506489
v -0.519788 -0.265337 -1.585924
v -0.382203 -0.265337 -1.506489
v -0.382203 -0.265337 -1.347620
v -0.519788 -0.265337 -1.268185
v -0.657373 -0.265337 -1.347620
v -0.657373 -0.265337 -1.506489
v -0.519788 -0.440046 -1.525494
v -0.434537 -0.440046 -1.476275
v -0.434537 -0.440046 -1.377835
v -0.519788 -0.440046 -1.328615
v -0.605040 -0.440046 -1.377835
v -0.605040 -0.440046 -1.476275
v 0.519788 -0.162791 1.585924
v 0.382203 -0.162791 1.506489
v 0.382203 -0.162791 1.347620
v 0.519788 -0.162791 1.268185
v 0.657373 -0.162791 1.347620
v 0.657373 -0.162791 1.506489
v 0.519788 -0.265337 1.585924
v 0.382203 -0.265337 1.506489
v 0.382203 -0.265337 1.347620
v 0.519788 -0.265337 1.268185
v 0.657373 -0.265337 1.347620
v 0.657373 -0.265337 1.506489
v 0.519788 -0.440046 1.525494
v 0.434537 -0.440046 1.476275
v 0.434537 -0.440046 1.377835
v 0.519788 -0.440046 1.328615
v 0.605040 -0.440046 1.377835
v 0.605040 -0.440046 1.476275
v -0.519788 -0.162791 1.585924
v -0.382203 -0.162791 1.506489
v -0.382203 -0.162791 1.347620
v -0.519788 -0.162791 1.268185
v -0.657373 -0.162791 1.347620
v -0.657373 -0.162791 1.506489
v -0.519788 -0.265337 1.585924
v -0.382203 -0.265337 1.506489
v -0.382203 -0.265337 1.347620
v -0.519788 -0.265337 1.268185
v -0.657373 -0.265337 1.347620
v -0.657373 -0.265337 1.506489
v -0.519788 -0.440046 1.525494
v -0.434537 -0.440046 1.476275
v -0.434537 -0.440046 1.377835
v -0.519788 -0.440046 1.328615
v -0.605040 -0.440046 1.377835
v -0.605040 -0.440046 1.476275
v -0.693828 0.000000 2.000000
v -1.000000 0.000000 1.387656
v -0.910324 0.000000 1.820648
v -0.693828 -0.226817 2.000000
v -1.000000 -0.226817 1.387656
v -0.910324 -0.226817 1.820648
v 0.693828 0.000000 2.000000
v 1.000000 0.000000 1.387656
v 0.910324 0.000000 1.820648
v 0.693828 -0.226817 2.000000
v 1.000000 -0.226817 1.387656
v 0.910324 -0.226817 1.820648
v -0.693828 0.000000 -2.000000
v -1.000000 0.000000 -1.387656
v -0.910324 0.000000 -1.820648
v -0.693828 -0.226817 -2.000000
v -1.000000 -0.226817 -1.387656
v -0.910324 -0.226817 -1.820648
v 0.693828 0.000000 -2.000000
v 1.000000 0.000000 -1.387656
v 0.910324 0.000000 -1.820648
v 0.693828 -0.226817 -2.000000
v 1.000000 -0.226817 -1.387656
v 0.910324 -0.226817 -1.820648
vn 0.5000 -0.0000 -0.8660
vn 0.5000 -0.0000 0.8660
vn -1.0000 -0.0000 -0.0000
vn 1.0000 -0.0000 -0.0000
vn -0.5000 -0.0000 0.8660
vn -0.5000 -0.0000 -0.8660
vn 0.9579 -0.2869 -0.0000
vn -0.4790 -0.2869 0.8296
vn -0.4790 -0.2869 -0.8296
vn 0.4790 -0.2870 -0.8296
vn 0.4790 -0.2869 0.8296
vn -0.9579 -0.2869 -0.0000
vn -0.0000 -1.0000 -0.0000
vn 0.4790 -0.2869 -0.8296
vn -0.4790 -0.2870 0.8296
vn -0.0000 -0.0000 -1.0000
vn -0.9792 -0.0000 0.2028
vn -0.6380 -0.0000 0.7701
vn 0.9792 -0.0000 0.2028
vn 0.6380 -0.0000 0.7701
vn -0.0000 -0.0000 1.0000
vn -0.9792 -0.0000 -0.2028
vn -0.6380 -0.0000 -0.7701
vn 0.9792 -0.0000 -0.2028
vn 0.6380 -0.0000 -0.7701
vn -0.0000 1.0000 -0.0000
vn -0.4790 -0.2870 -0.8296
vn 0.4790 -0.2870 0.8296
vt 0.000000 0.000000
vt 0.000000 0.000000
vt 0.000000 0.000000
vt 0.000000 0.000000
vt 0.000000 0.000000
vt 0.000000 0.000000
vt 0.000000 0.000000
vt 0.000000 0.000000
vt 0.000000 0.000000
vt 0.000000 0.000000
vt 0.000000 0.000000
vt 0.000000 0.000000
vt 0.000000 0.000000
vt 0.000000 0.000000
vt 0.000000 0.000000
vt 0.000000 0.000000
vt 0.000000 0.000000
vt 0.000000 0.000000
vt 0.000000 0.000000
vt 0.000000 0.000000
vt 0.000000 0.000000
vt 0.000000 0.000000
vt 0.000000 0.000000
vt 0.000000 0.000000
vt 0.000000 0.000000
vt 0.000000 0.000000
vt 0.000000 0.000000
vt 0.000000 0.000000
vt 0.000000 0.000000
vt 0.000000 0.000000
vt 0.000000 0.000000
vt 0.000000 0.000000
vt 0.000000 0.000000
vt 0.000000 0.000000
vt 0.000000 0.000000
vt 0.000000 0.000000
vt 0.000000 0.000000
vt 0.000000 0.000000
vt 0.000000 0.000000
vt 0.000000 0.000000
vt 0.000000 0.000000
vt 0.000000 0.000000
vt 0.000000 0.000000
vt 0.000000 0.000000
vt 0.000000 0.000000
vt 0.000000 0.000000
vt 0.000000 0.000000
vt 0.000000 0.000000
vt 0.000000 0.000000
vt 0.000000 0.000000
vt 0.000000 0.000000
vt 0.000000 0.000000
vt 0.000000 0.000000
vt 0.000000 0.000000
vt 0.000000 0.000000
vt 0.000000 0.000000
vt 0.000000 0.000000
vt 0.000000 0.000000
vt 0.000000 0.000000
vt 0.000000 0.000000
vt 0.000000 0.000000
vt 0.000000 0.000000
vt 0.000000 0.000000
vt 0.000000 0.000000
vt 0.000000 0.000000
vt 0.000000 0.000000
vt 0.000000 0.000000
vt 0.000000 0.000000
vt 0.000000 0.000000
vt 0.000000 0.000000
vt 0.000000 0.000000
vt 0.000000 0.000000
vt 0.153086 0.000000
vt 0.000000 0.153086
vt 0.044838 0.044838
vt 0.153086 0.000000
vt 0.000000 0.153086
vt 0.044838 0.044838
vt 0.153086 0.000000
vt 0.000000 0.153086
vt 0.044838 0.044838
vt 0.153086 0.000000
vt 0.000000 0.153086
vt 0.044838 0.044838
vt 0.153086 0.000000
vt 0.000000 0.153086
vt 0.044838 0.044838
vt 0.153086 0.000000
vt 0.000000 0.153086
vt 0.044838 0.044838
vt 0.153086 0.000000
vt 0.000000 0.153086
vt 0.044838 0.044838
vt 0.153086 0.000000
vt 0.000000 0.153086
vt 0.044838 0.044838
s 0
f 6/6/1 7/7/1 1/1/1
f 4/4/2 11/11/2 5/5/2
f 2/2/3 9/9/3 3/3/3
f 5/5/4 12/12/4 6/6/4
f 3/3/5 10/10/5 4/4/5
f 1/1/6 8/8/6 2/2/6
f 11/11/7 18/18/7 12/12/7
f 10/10/8 15/15/8 16/16/8
f 7/7/9 14/14/9 8/8/9
f 7/7/10 18/18/10 13/13/10
f 10/10/11 17/17/11 11/11/11
f 8/8/12 15/15/12 9/9/12
f 13/13/13 17/17/13 15/15/13
f 25/25/6 24/24/6 19/19/6
f 29/29/5 22/22/5 23/23/5
f 27/27/4 20/20/4 21/21/4
f 30/30/3 23/23/3 24/24/3
f 28/28/2 21/21/2 22/22/2
f 26/26/1 19/19/1 20/20/1
f 30/30/12 35/35/12 29/29/12
f 28/28/11 33/33/11 27/27/11
f 32/32/14 25/25/14 26/26/14
f 25/25/9 36/36/9 30/30/9
f 35/35/8 28/28/8 29/29/8
f 33/33/7 26/26/7 27/27/7
f 33/33/13 35/35/13 31/31/13
f 43/43/2 42/42/2 37/37/2
f 47/47/1 40/40/1 41/41/1
f 45/45/3 38/38/3 39/39/3
f 48/48/4 41/41/4 42/42/4
f 46/46/6 39/39/6 40/40/6
f 44/44/5 37/37/5 38/38/5
f 48/48/7 53/53/7 47/47/7
f 46/46/9 51/51/9 45/45/9
f 50/50/8 43/43/8 44/44/8
f 43/43/11 54/54/11 48/48/11
f 53/53/14 46/46/14 47/47/14
f 51/51/12 44/44/12 45/45/12
f 51/51/13 53/53/13 49/49/13
f 60/60/5 61/61/5 55/55/5
f 58/58/6 65/65/6 59/59/6
f 56/56/4 63/63/4 57/57/4
f 59/59/3 66/66/3 60/60/3
f 57/57/1 64/64/1 58/58/1
f 55/55/2 62/62/2 56/56/2
f 65/65/12 72/72/12 66/66/12
f 64/64/14 69/69/14 70/70/14
f 61/61/11 68/68/11 62/62/11
f 61/61/15 72/72/15 67/67/15
f 64/64/9 71/71/9 65/65/9
f 62/62/7 69/69/7 63/63/7
f 67/67/13 71/71/13 69/69/13
f 94/94/16 85/85/16 91/91/16
f 74/74/3 89/89/3 77/77/3
f 77/77/17 75/75/17 74/74/17
f 78/78/18 73/73/18 75/75/18
f 82/82/13 89/89/13 96/96/13
f 83/83/4 92/92/4 80/80/4
f 81/81/19 83/83/19 80/80/19
f 79/79/20 84/84/20 81/81/20
f 73/73/21 82/82/21 79/79/21
f 87/87/22 89/89/22 86/86/22
f 85/85/23 90/90/23 87/87/23
f 95/95/24 93/93/24 92/92/24
f 96/96/25 91/91/25 93/93/25
f 85/85/26 75/75/26 80/80/26
f 6/6/1 12/12/1 7/7/1
f 4/4/2 10/10/2 11/11/2
f 2/2/3 8/8/3 9/9/3
f 5/5/4 11/11/4 12/12/4
f 3/3/5 9/9/5 10/10/5
f 1/1/6 7/7/6 8/8/6
f 11/11/7 17/17/7 18/18/7
f 10/10/8 9/9/8 15/15/8
f 7/7/9 13/13/9 14/14/9
f 7/7/14 12/12/14 18/18/14
f 10/10/11 16/16/11 17/17/11
f 8/8/12 14/14/12 15/15/12
f 15/15/13 14/14/13 13/13/13
f 13/13/13 18/18/13 17/17/13
f 17/17/13 16/16/13 15/15/13
f 25/25/6 30/30/6 24/24/6
f 29/29/5 28/28/5 22/22/5
f 27/27/4 26/26/4 20/20/4
f 30/30/3 29/29/3 23/23/3
f 28/28/2 27/27/2 21/21/2
f 26/26/1 25/25/1 19/19/1
f 30/30/12 36/36/12 35/35/12
f 28/28/11 34/34/11 33/33/11
f 32/32/14 31/31/14 25/25/14
f 25/25/27 31/31/27 36/36/27
f 35/35/8 34/34/8 28/28/8
f 33/33/7 32/32/7 26/26/7
f 31/31/13 32/32/13 33/33/13
f 33/33/13 34/34/13 35/35/13
f 35/35/13 36/36/13 31/31/13
f 43/43/2 48/48/2 42/42/2
f 47/47/1 46/46/1 40/40/1
f 45/45/3 44/44/3 38/38/3
f 48/48/4 47/47/4 41/41/4
f 46/46/6 45/45/6 39/39/6
f 44/44/5 43/43/5 37/37/5
f 48/48/7 54/54/7 53/53/7
f 46/46/9 52/52/9 51/51/9
f 50/50/8 49/49/8 43/43/8
f 43/43/28 49/49/28 54/54/28
f 53/53/14 52/52/14 46/46/14
f 51/51/12 50/50/12 44/44/12
f 49/49/13 50/50/13 51/51/13
f 51/51/13 52/52/13 53/53/13
f 53/53/13 54/54/13 49/49/13
f 60/60/5 66/66/5 61/61/5
f 58/58/6 64/64/6 65/65/6
f 56/56/4 62/62/4 63/63/4
f 59/59/3 65/65/3 66/66/3
f 57/57/1 63/63/1 64/64/1
f 55/55/2 61/61/2 62/62/2
f 65/65/12 71/71/12 72/72/12
f 64/64/14 63/63/14 69/69/14
f 61/61/11 67/67/11 68/68/11
f 61/61/8 66/66/8 72/72/8
f 64/64/9 70/70/9 71/71/9
f 62/62/7 68/68/7 69/69/7
f 69/69/13 68/68/13 67/67/13
f 67/67/13 72/72/13 71/71/13
f 71/71/13 70/70/13 69/69/13
f 94/94/16 88/88/16 85/85/16
f 74/74/3 86/86/3 89/89/3
f 77/77/17 78/78/17 75/75/17
f 78/78/18 76/76/18 73/73/18
f 96/96/13 95/95/13 83/83/13
f 83/83/13 84/84/13 82/82/13
f 82/82/13 76/76/13 78/78/13
f 78/78/13 77/77/13 89/89/13
f 89/89/13 90/90/13 88/88/13
f 88/88/13 94/94/13 96/96/13
f 96/96/13 83/83/13 82/82/13
f 82/82/13 78/78/13 89/89/13
f 89/89/13 88/88/13 96/96/13
f 83/83/4 95/95/4 92/92/4
f 81/81/19 84/84/19 83/83/19
f 79/79/20 82/82/20 84/84/20
f 73/73/21 76/76/21 82/82/21
f 87/87/22 90/90/22 89/89/22
f 85/85/23 88/88/23 90/90/23
f 95/95/24 96/96/24 93/93/24
f 96/96/25 94/94/25 91/91/25
f 80/80/26 92/92/26 93/93/26
f 93/93/26 91/91/26 85/85/26
f 85/85/26 87/87/26 86/86/26
f 86/86/26 74/74/26 75/75/26
f 75/75/26 73/73/26 79/79/26
f 79/79/26 81/81/26 80/80/26
f 80/80/26 93/93/26 85/85/26
f 85/85/26 86/86/26 75/75/26
f 75/75/26 79/79/26 80/80/26
